<svg width="172" height="54" viewBox="0 0 172 54" xmlns="http://www.w3.org/2000/svg"><title>paste-from-ai</title><g fill="none" fill-rule="evenodd"><path stroke="#FFF" stroke-width="2" d="M0 0h54v54H0z"/><path d="M26.064 32.124L28.26 39h4.752l-7.884-24.264h-5.652L11.7 39h4.572l2.088-6.876h7.704zm-6.984-3.348l1.872-5.976c.432-1.44.792-3.132 1.152-4.536h.072c.36 1.404.756 3.06 1.224 4.536l1.908 5.976H19.08zM40.68 39V21.468h-4.464V39h4.464zm-2.232-24.84c-1.476 0-2.484 1.044-2.484 2.412 0 1.332.972 2.376 2.448 2.376 1.548 0 2.52-1.044 2.52-2.376-.036-1.368-.972-2.412-2.484-2.412z" fill="#FFF"/><path stroke="#FFF" stroke-width="2" d="M118 0h54v54h-54z"/><path d="M125.912 39h4.428V28.704h8.928v-3.636h-8.928v-6.696h9.576v-3.636h-14.004V39zm16.272-17.532L147.368 39h4.14l2.232-7.128c.504-1.728.972-3.456 1.332-5.616h.072c.396 2.124.792 3.78 1.332 5.616L158.564 39h4.104l5.508-17.532h-4.356l-1.944 7.776c-.468 2.052-.864 3.96-1.152 5.868h-.072c-.396-1.908-.864-3.816-1.404-5.868l-2.196-7.776h-3.6l-2.268 7.992c-.504 1.8-1.08 3.744-1.44 5.652h-.072c-.324-1.908-.72-3.816-1.116-5.688l-1.836-7.956h-4.536zM61 27l37-3-11-12 24 15-24 15 11-12-37-3z" fill="#FFF"/></g></svg>