<svg width="110" height="138" viewBox="0 0 110 138" xmlns="http://www.w3.org/2000/svg"><title>font-mixer-symbol</title><g fill="#FFF" fill-rule="evenodd"><path d="M24 96h-1L11.13 12H5.992C2.692 12 0 9.314 0 6c0-3.307 2.683-6 5.992-6h98.016c3.3 0 5.992 2.686 5.992 6 0 3.307-2.683 6-5.992 6H98.87L87 96h-1 3.247c1.105 0 2.163.882 2.37 1.97l7.25 38.06c.208 1.093-.517 1.97-1.618 1.97H12.75c-1.09 0-1.825-.882-1.618-1.97l7.25-38.06c.208-1.093 1.268-1.97 2.37-1.97H24zm6.18-19.953L21.13 12h67.74l-9.05 64.047H30.18z"/><path d="M40.698 33.857l-2.444.387-1.404-8.866 17.447-2.763-.81-5.12-23.374 3.702 2.82 17.807c2.93-2.787 5.565-4.074 7.765-5.147zm1.992-.316l10.877-1.72.766 4.834-15.154 2.4c.808-1.753 1.973-3.602 3.51-5.513zm-3.632 5.78l1.882 11.883c-3.37-2.594-4.12-6.83-1.882-11.882zM56.2 53.604c.085-.358.165-.752.24-1.183l3.61-20.472c.297-1.677.236-2.818-.18-3.423-.418-.605-1.492-1.124-3.225-1.557l.155-.877 25.182 4.442-1.035 6.814-1.316-.232c.06-2.227-.305-3.707-1.096-4.442-.79-.734-2.502-1.333-5.133-1.797l-6.462-1.14c-.63-.11-1.054-.074-1.27.11-.213.184-.377.592-.488 1.222l-1.86 10.55 6.832 1.203c2.016.356 3.354.282 4.014-.22.66-.503 1.32-1.64 1.98-3.41l1.11.194-1.455 8.25c-.57.252-1.133.496-1.69.73-.116-.957-.32-1.66-.612-2.11-.45-.69-1.675-1.21-3.675-1.564l-6.832-1.205-1.612 9.147c-1.823.433-3.55.754-5.177.972z"/><path d="M84.43 43.408C45.214 64.406 27.36 50.598 44 32c-3.8 2.85-10.305 2.992-17.803 15.853L30.174 76h49.652l4.605-32.592z" opacity=".5"/></g></svg>