<svg width="288" height="288" viewBox="0 0 288 288" xmlns="http://www.w3.org/2000/svg"><g fill="none"><path d="M144 288c79.53 0 144-64.47 144-144s-64.47-144-144-144-144 64.47-144 144 64.47 144 144 144zm0-4c77.32 0 140-62.68 140-140s-62.68-140-140-140-140 62.68-140 140 62.68 140 140 140z" fill="#F5A623"/><path d="M132 202.015c-12-3.88-68 4.006-68 4.006v-123.161s56-6.884 68-4.005c12 2.88 12 8.135 12 8.135 0-.172 0-5.43 12-8.307 12-2.88 68 4.005 68 4.005v123.16s-56-7.885-68-4.005l-12 8.136c0 .17 0-4.084-12-7.965z" fill="#F6A623"/></g></svg>