<svg width="288" height="288" viewBox="0 0 288 288" xmlns="http://www.w3.org/2000/svg"><g fill="none" fill-rule="evenodd"><g transform="translate(64 64)"><circle fill="#4990E2" cx="80" cy="80" r="49"/><path d="M123.934 146.867C111.324 155.17 96.226 160 80 160c-44.183 0-80-35.817-80-80S35.817 0 80 0s80 35.817 80 80c0 16.223-4.83 31.32-13.128 43.927l10.292 10.25c1.574 1.566 2.836 4.617 2.836 6.83v14.987c0 2.22-1.794 4.006-4.006 4.006h-14.988c-2.22 0-5.27-1.27-6.83-2.837l-10.242-10.296zm-23.366-23.485C94.334 126.342 87.36 128 80 128c-26.51 0-48-21.49-48-48s21.49-48 48-48 48 21.49 48 48c0 7.352-1.653 14.318-4.607 20.546l-32.23-32.093c-6.356-6.33-16.66-6.315-23.006.033l.364-.365c-6.348 6.35-6.363 16.655-.036 23.014l32.084 32.248z" fill="#000"/></g><path d="M144 288c79.53 0 144-64.47 144-144S223.53 0 144 0 0 64.47 0 144s64.47 144 144 144zm0-4c77.32 0 140-62.68 140-140S221.32 4 144 4 4 66.68 4 144s62.68 140 140 140z" fill="#4A90E2"/></g></svg>