<svg width="116" height="116" viewBox="0 0 116 116" xmlns="http://www.w3.org/2000/svg"><title>psle-scaler-symbol</title><g fill="#FFF" fill-rule="evenodd"><path d="M4 4v108h108V4H4zm1 1v106h106V5H5z"/><path d="M18 18v80h80V18H18zm4 4v72h72V22H22zM0 0h8v8H0zM0 108h8v8H0zM54 0h8v8h-8zM54 108h8v8h-8zM108 0h8v8h-8zM0 54h8v8H0zM108 54h8v8h-8zM108 108h8v8h-8z"/><path d="M40.556 55h4.392v-9.144c.576.108 1.332.144 2.16.144 3.132 0 5.904-.828 7.668-2.592 1.368-1.296 2.088-3.204 2.088-5.508 0-2.268-.936-4.176-2.376-5.364-1.548-1.296-3.924-1.98-7.164-1.98-2.988 0-5.184.216-6.768.504V55zm4.392-20.844c.468-.108 1.332-.216 2.556-.216 3.06 0 4.932 1.44 4.932 4.14 0 2.844-2.016 4.464-5.328 4.464-.9 0-1.62-.036-2.16-.18v-8.208zm17.716 19.98c1.296.72 3.204 1.224 5.328 1.224 4.644 0 7.128-2.304 7.128-5.472-.036-2.592-1.512-4.212-4.68-5.364-2.232-.792-3.06-1.332-3.06-2.448 0-1.08.864-1.836 2.448-1.836 1.548 0 2.952.576 3.708 1.008l.864-3.132c-1.008-.54-2.7-1.044-4.644-1.044-4.068 0-6.624 2.412-6.624 5.508-.036 2.052 1.404 3.924 4.824 5.112 2.16.756 2.88 1.368 2.88 2.556 0 1.152-.864 1.944-2.808 1.944-1.584 0-3.492-.648-4.5-1.26l-.864 3.204zM40.556 86h14.4v-3.708h-9.972V61.736h-4.428V86zm35.32-14.364h-9.144v-6.264h9.684v-3.636H62.304V86h14.652v-3.636H66.732v-7.128h9.144v-3.6z"/></g></svg>