<?xml version="1.0" encoding="UTF-8"?>
<svg width="580px" height="244px" viewBox="0 0 580 244" version="1.1" xmlns="http://www.w3.org/2000/svg" xmlns:xlink="http://www.w3.org/1999/xlink">
    <!-- Generator: Sketch 41.2 (35397) - http://www.bohemiancoding.com/sketch -->
    <title>sketch-switch-text-spacing</title>
    <desc>Created with Sketch.</desc>
    <defs>
        <rect id="path-1" x="0" y="0" width="280" height="140"></rect>
        <mask id="mask-2" maskContentUnits="userSpaceOnUse" maskUnits="objectBoundingBox" x="0" y="0" width="280" height="140" fill="white">
            <use xlink:href="#path-1"></use>
        </mask>
        <rect id="path-3" x="0" y="0" width="255" height="140"></rect>
        <mask id="mask-4" maskContentUnits="userSpaceOnUse" maskUnits="objectBoundingBox" x="0" y="0" width="255" height="140" fill="white">
            <use xlink:href="#path-3"></use>
        </mask>
    </defs>
    <g stroke="none" stroke-width="1" fill="none" fill-rule="evenodd">
        <g>
            <g transform="translate(289.500000, 32.500000) rotate(-270.000000) translate(-289.500000, -32.500000) translate(257.000000, -5.000000)">
                <path d="M9.3920517,19.8198052 C9.3920517,44.6726189 29.6954177,64.8198052 54.7408889,64.8198052 L54.7408889,64.8198052" stroke="#FFFFFF" stroke-width="6" transform="translate(32.066470, 42.319805) rotate(-315.000000) translate(-32.066470, -42.319805) "></path>
                <polygon fill="#FFFFFF" transform="translate(29.939830, 13.209524) rotate(-270.000000) translate(-29.939830, -13.209524) " points="17.0530114 0.952164466 42.8266489 8.37678567 28.9311785 12.738961 25.6040701 25.4668831"></polygon>
            </g>
            <g transform="translate(289.500000, 211.500000) scale(-1, -1) rotate(-270.000000) translate(-289.500000, -211.500000) translate(257.000000, 174.000000)">
                <path d="M9.3920517,19.8198052 C9.3920517,44.6726189 29.6954177,64.8198052 54.7408889,64.8198052 L54.7408889,64.8198052" stroke="#FFFFFF" stroke-width="6" transform="translate(32.066470, 42.319805) rotate(-315.000000) translate(-32.066470, -42.319805) "></path>
                <polygon fill="#FFFFFF" transform="translate(29.939830, 13.209524) rotate(-270.000000) translate(-29.939830, -13.209524) " points="17.0530114 0.952164466 42.8266489 8.37678567 28.9311785 12.738961 25.6040701 25.4668831"></polygon>
            </g>
            <g transform="translate(0.000000, 52.000000)">
                <path d="M66.22,11.94 L48.72,17.68 C52.92,26.36 60.62,46.66 63.28,55.62 L80.92,49.46 C78.26,40.36 69.72,18.8 66.22,11.94 Z M109.2,17.12 C107.1,36.3 99.12,61.36 87.64,75.92 C73.36,93.98 51.52,106.58 32.34,112.04 L48.02,127.72 C68.04,120.16 88.34,106.02 103.04,86.7 C114.66,71.44 122.64,49.18 126.56,34.06 C127.4,30.84 128.66,26.64 130.06,23.14 L109.2,17.12 Z M27.3,20.62 L9.38,26.78 C13.44,34.34 22.68,57.3 25.48,66.4 L43.54,59.82 C40.32,50.3 31.64,29.44 27.3,20.62 Z M236.88,10.68 C236.18,14.32 234.78,20.06 233.52,23.56 C229.74,34.48 225.26,45.54 218.12,56.74 C206.78,48.34 192.36,38.54 181.16,31.54 L169.12,45.96 C183.4,54.5 196.7,64.58 206.64,72.42 C192.92,89.08 176.26,102.66 153.44,113.72 L169.54,128.14 C193.2,115.26 209.3,99.72 221.62,84.88 C232.82,94.54 242.76,104.2 252.56,115.68 L266.98,99.58 C257.6,89.64 245.98,78.86 233.66,68.78 C242.06,55.9 248.36,41.9 252.56,30.7 C253.82,27.48 256.48,21.32 258.3,18.24 L236.88,10.68 Z" fill="#FFFFFF"></path>
                <g opacity="0.600000024">
                    <use stroke="#FFFFFF" mask="url(#mask-2)" stroke-width="2" fill-opacity="0" fill="#D8D8D8" xlink:href="#path-1"></use>
                    <rect fill="#FFFFFF" x="140" y="0" width="1" height="140"></rect>
                </g>
                <rect fill="#FFFFFF" opacity="0.200000003" x="141" y="1" width="12" height="138"></rect>
                <rect fill="#FFFFFF" opacity="0.200000003" x="130" y="1" width="10" height="138"></rect>
                <rect fill="#FFFFFF" opacity="0.200000003" x="1" y="1" width="8" height="138"></rect>
                <rect fill="#FFFFFF" opacity="0.200000003" x="267" y="1" width="12" height="138"></rect>
            </g>
            <g transform="translate(324.000000, 52.000000)">
                <path d="M62.22,11.94 L44.72,17.68 C48.92,26.36 56.62,46.66 59.28,55.62 L76.92,49.46 C74.26,40.36 65.72,18.8 62.22,11.94 Z M105.2,17.12 C103.1,36.3 95.12,61.36 83.64,75.92 C69.36,93.98 47.52,106.58 28.34,112.04 L44.02,127.72 C64.04,120.16 84.34,106.02 99.04,86.7 C110.66,71.44 118.64,49.18 122.56,34.06 C123.4,30.84 124.66,26.64 126.06,23.14 L105.2,17.12 Z M23.3,20.62 L5.38,26.78 C9.44,34.34 18.68,57.3 21.48,66.4 L39.54,59.82 C36.32,50.3 27.64,29.44 23.3,20.62 Z M219.72,10.68 C219.02,14.32 217.62,20.06 216.36,23.56 C212.58,34.48 208.1,45.54 200.96,56.74 C189.62,48.34 175.2,38.54 164,31.54 L151.96,45.96 C166.24,54.5 179.54,64.58 189.48,72.42 C175.76,89.08 159.1,102.66 136.28,113.72 L152.38,128.14 C176.04,115.26 192.14,99.72 204.46,84.88 C215.66,94.54 225.6,104.2 235.4,115.68 L249.82,99.58 C240.44,89.64 228.82,78.86 216.5,68.78 C224.9,55.9 231.2,41.9 235.4,30.7 C236.66,27.48 239.32,21.32 241.14,18.24 L219.72,10.68 Z" fill="#FFFFFF"></path>
                <g opacity="0.600000024">
                    <use stroke="#FFFFFF" mask="url(#mask-4)" stroke-width="2" fill-opacity="0" fill="#D8D8D8" xlink:href="#path-3"></use>
                    <rect fill="#FFFFFF" x="131" y="0" width="1" height="140"></rect>
                </g>
            </g>
        </g>
    </g>
</svg>