<svg width="96" height="17" viewBox="0 0 96 17" xmlns="http://www.w3.org/2000/svg"><title>sketch-regexp-rename-symbol</title><path d="M.846 10.476c.504.348 1.032.627 1.584.837.552.21 1.194.315 1.926.315.756 0 1.308-.114 1.656-.342.348-.228.522-.516.522-.864 0-.324-.21-.606-.63-.846-.42-.24-1.116-.48-2.088-.72-.432-.108-.85-.24-1.25-.396-.403-.156-.754-.34-1.054-.55-.3-.21-.54-.443-.72-.7-.18-.26-.27-.55-.27-.874 0-.372.08-.714.243-1.026.162-.312.405-.582.73-.81.323-.228.72-.408 1.187-.54.468-.132 1.008-.198 1.62-.198.696 0 1.36.117 1.99.35.63.235 1.166.502 1.61.802L7.074 6.03c-.396-.264-.822-.48-1.278-.648-.456-.168-.948-.252-1.476-.252-.744 0-1.263.108-1.557.324-.294.216-.44.48-.44.792 0 .336.24.612.72.828.48.216 1.097.42 1.853.612 1.104.276 1.953.61 2.547 1 .594.39.89.932.89 1.628 0 .372-.09.72-.27 1.044-.18.324-.44.61-.782.855-.34.246-.76.438-1.26.576-.497.137-1.07.206-1.718.206-.84 0-1.632-.135-2.376-.405S.54 12 0 11.63l.846-1.152zm11.97 5.184h-1.548L17.172 0h1.548l-5.904 15.66zM22.878 3.978h1.476l.144 2.052h.054c.456-.72 1.01-1.278 1.665-1.674.654-.396 1.377-.594 2.17-.594.347 0 .653.027.917.08.264.055.534.148.81.28l-.396 1.53c-.3-.096-.558-.168-.774-.216-.216-.048-.492-.072-.828-.072-.636 0-1.248.18-1.836.54-.588.36-1.128.984-1.62 1.872v5.004h-1.782V3.978zm9.486 4.41c0-.72.126-1.365.378-1.935.252-.57.588-1.056 1.008-1.458.42-.402.9-.708 1.44-.918.54-.21 1.098-.315 1.674-.315.648 0 1.22.102 1.72.306.497.204.92.49 1.268.855.348.366.612.804.792 1.314.18.51.27 1.07.27 1.683 0 .18-.01.35-.027.513-.018.162-.04.297-.063.405H34.2c.06.864.38 1.54.963 2.025.582.486 1.317.73 2.205.73.48 0 .927-.067 1.34-.2.415-.13.82-.317 1.216-.557l.63 1.134c-.456.288-.97.53-1.54.73-.57.197-1.196.296-1.88.296-.66 0-1.28-.105-1.863-.315-.58-.21-1.088-.512-1.52-.908-.432-.396-.77-.88-1.017-1.45-.246-.57-.37-1.214-.37-1.934zm6.894-.774c0-.792-.204-1.398-.612-1.818-.408-.42-.99-.63-1.746-.63-.66 0-1.248.21-1.764.63-.516.42-.834 1.026-.954 1.818h5.076zm5.958 8.046h-1.548L49.572 0h1.548l-5.904 15.66zM56.25 6.534h1.782c.864 0 1.524-.177 1.98-.53.456-.355.684-.892.684-1.612 0-.72-.228-1.227-.684-1.52-.456-.295-1.116-.442-1.98-.442H56.25v4.104zm4.608 6.246l-2.682-4.788H56.25v4.788h-1.8V.99h3.798c.612 0 1.176.057 1.692.17.516.115.963.307 1.34.577.38.27.673.62.883 1.053.21.432.315.966.315 1.602 0 .912-.225 1.644-.675 2.196-.45.552-1.053.942-1.81 1.17l2.9 5.022h-2.035zm3.906-4.392c0-.72.126-1.365.378-1.935.252-.57.588-1.056 1.008-1.458.42-.402.9-.708 1.44-.918.54-.21 1.098-.315 1.674-.315.648 0 1.22.102 1.72.306.497.204.92.49 1.268.855.348.366.612.804.792 1.314.18.51.27 1.07.27 1.683 0 .18-.01.35-.027.513-.018.162-.04.297-.063.405H66.6c.06.864.38 1.54.963 2.025.582.486 1.317.73 2.205.73.48 0 .927-.067 1.34-.2.415-.13.82-.317 1.216-.557l.63 1.134c-.456.288-.97.53-1.54.73-.57.197-1.196.296-1.88.296-.66 0-1.28-.105-1.863-.315-.58-.21-1.088-.512-1.52-.908-.432-.396-.77-.88-1.017-1.45-.246-.57-.37-1.214-.37-1.934zm6.894-.774c0-.792-.204-1.398-.612-1.818-.408-.42-.99-.63-1.746-.63-.66 0-1.248.21-1.764.63-.516.42-.834 1.026-.954 1.818h5.076zm5.958 8.046h-1.548L81.972 0h1.548l-5.904 15.66zm10.296-1.512c0 .42.23.76.693 1.017.462.258 1.13.387 2.007.387.468 0 .89-.045 1.27-.135.377-.09.7-.21.97-.36s.478-.32.622-.513c.144-.192.216-.396.216-.612 0-.384-.16-.64-.477-.765-.318-.126-.795-.19-1.43-.19h-1.55c-.275 0-.52-.008-.737-.026-.216-.017-.42-.056-.612-.116-.36.204-.612.414-.756.63-.144.216-.216.444-.216.684zm-1.512.216c0-.348.123-.687.37-1.017.245-.33.596-.627 1.052-.89v-.073c-.24-.132-.45-.315-.63-.55-.18-.233-.27-.536-.27-.908 0-.288.093-.58.28-.873.185-.294.446-.555.782-.783v-.072c-.312-.228-.576-.53-.792-.91-.216-.377-.324-.83-.324-1.358 0-.492.096-.933.288-1.323.192-.39.45-.723.774-1 .324-.275.7-.485 1.125-.63.426-.143.88-.215 1.36-.215.49 0 .935.072 1.33.216h3.62v1.35h-2.197c.18.192.342.43.486.71.144.283.216.598.216.946 0 .48-.09.906-.27 1.278-.18.372-.426.687-.738.945-.312.258-.678.453-1.098.585-.42.132-.87.198-1.35.198-.216 0-.447-.024-.693-.072-.245-.048-.488-.12-.728-.216-.408.264-.612.57-.612.918 0 .324.15.558.45.702.3.144.732.216 1.296.216h1.872c1.152 0 2.007.165 2.565.495.558.33.837.873.837 1.63 0 .42-.117.815-.35 1.187-.235.372-.568.7-1 .98-.432.283-.954.505-1.566.667-.612.162-1.296.243-2.052.243-1.248 0-2.232-.2-2.952-.603-.72-.402-1.08-.993-1.08-1.773zm4.014-5.526c.504 0 .936-.168 1.296-.504.36-.336.54-.804.54-1.404 0-.576-.18-1.038-.54-1.386-.36-.348-.792-.522-1.296-.522s-.936.174-1.296.522c-.36.348-.54.81-.54 1.386 0 .6.18 1.068.54 1.404.36.336.792.504 1.296.504z" fill="#FFF" fill-rule="evenodd"/></svg>