<svg width="160" height="131" viewBox="0 0 160 131" xmlns="http://www.w3.org/2000/svg"><title>fwjson-to-layers-symbol</title><g fill="#FFF" fill-rule="evenodd"><path d="M79.02 11h11.275c.67 2.55.306 6.014-1.067 11.114-4.838 17.967 21.402 13.13 21.422 39.39C110.662 76.016 103.05 87 82.317 87 61.585 87 51.91 74.927 51.91 64.268c0-6.91 3.31-10.514 3.34-14.15.06-6.813-3.042-10.922-10.25-9.346 4.837-5.528 12.44-3.455 17.967 4.147C45.977 18.9 76.715 19.4 79.02 11zm28.62 4.203c-10.81 6.22-9.43 14.167.937 24.187-18.658-7.6-17.967-21.423-.938-24.187z" opacity=".5"/><path d="M79.02 11H38L16 43l64 88 64-88-22-32H90.295C88.85 5.5 82.592 4.25 71.26 0c6.565 5.124 8.455 8.466 7.76 11zm0 0h11.275c.67 2.55.306 6.014-1.067 11.114-4.838 17.967 21.402 13.13 21.422 39.39C110.662 76.016 103.05 87 82.317 87 61.585 87 51.91 74.927 51.91 64.268c0-6.91 3.31-10.514 3.34-14.15.06-6.813-3.042-10.922-10.25-9.346 4.837-5.528 12.44-3.455 17.967 4.147C45.977 18.9 76.715 19.4 79.02 11zm28.62 4.203c-10.81 6.22-9.43 14.167.937 24.187-18.658-7.6-17.967-21.423-.938-24.187z"/></g></svg>