<?xml version="1.0" encoding="UTF-8" standalone="no"?>
<svg width="181px" height="65px" viewBox="0 0 181 65" version="1.1" xmlns="http://www.w3.org/2000/svg" xmlns:xlink="http://www.w3.org/1999/xlink" xmlns:sketch="http://www.bohemiancoding.com/sketch/ns">
    <title>creative-tweet</title>
    <description>Created with Sketch (http://www.bohemiancoding.com/sketch)</description>
    <defs></defs>
    <g id="Stencil" stroke="none" stroke-width="1" fill="none" fill-rule="evenodd" sketch:type="MSPage">
        <g id="Desktop" sketch:type="MSArtboardGroup" transform="translate(-390.000000, -72.000000)" fill="#E63617">
            <g id="ct" sketch:type="MSLayerGroup" transform="translate(390.000000, 72.000000)">
                <path d="M35.5497668,31.0320263 C35.1102091,28.0193456 33.9014434,25.7441782 31.9234335,24.2064558 C29.9454236,22.6687333 27.4494009,21.8998836 24.4352906,21.8998836 C23.0538234,21.8998836 21.5781874,22.1352458 20.0083383,22.6059771 C18.4384891,23.0767085 16.9942496,23.9553939 15.6755764,25.2420596 C14.3569031,26.5287253 13.2580252,28.3174776 12.3789097,30.6083702 C11.4997942,32.8992628 11.060243,35.8962075 11.060243,39.5992942 C11.060243,41.607748 11.2957169,43.6161717 11.7666716,45.6246255 C12.2376263,47.6330792 12.9911426,49.4218316 14.027243,50.9909361 C15.0633434,52.5600406 16.3976952,53.8309962 18.0303383,54.803841 C19.6629813,55.7766858 21.6409616,56.263101 23.9643383,56.263101 C27.1040365,56.263101 29.6942487,55.2902707 31.7350525,53.3445811 C33.7758564,51.3988915 35.0474151,48.6686906 35.5497668,45.1538965 L46.2874811,45.1538965 C45.2827777,51.4930787 42.8809446,56.341539 39.0819097,59.6994227 C35.2828748,63.0573064 30.2437347,64.736223 23.9643383,64.736223 C20.1339064,64.736223 16.7587814,64.0928998 13.8388621,62.8062341 C10.9189427,61.5195684 8.45431656,59.7621977 6.44490969,57.5340693 C4.43550282,55.3059408 2.91277201,52.654194 1.87667159,49.5787491 C0.840571174,46.5033042 0.322528736,43.1768525 0.322528736,39.5992942 C0.322528736,35.9589717 0.824872918,32.5383751 1.82957635,29.3374019 C2.83427979,26.1364287 4.34131234,23.3591553 6.35071921,21.0054985 C8.36012608,18.6518417 10.8561487,16.8003262 13.8388621,15.4508963 C16.8215754,14.1014664 20.3222864,13.4267616 24.3411002,13.4267616 C27.1668286,13.4267616 29.8512303,13.7876502 32.3943859,14.5094383 C34.9375415,15.2312264 37.1980903,16.3138922 39.1761002,17.7574684 C41.1541101,19.2010446 42.7710304,21.0211785 44.0269097,23.2179248 C45.282789,25.4146712 46.0363053,28.0193456 46.2874811,31.0320263 L35.5497668,31.0320263 Z M58.0803251,14.7448028 L66.1807061,14.7448028 L66.1807061,0.152203636 L76.9184204,0.152203636 L76.9184204,14.7448028 L86.6200394,14.7448028 L86.6200394,22.7471958 L76.9184204,22.7471958 L76.9184204,48.7314369 C76.9184204,49.8611921 76.9655151,50.8340224 77.0597061,51.6499567 C77.153897,52.4658911 77.3736726,53.1562867 77.7190394,53.7211643 C78.0644062,54.286042 78.5824487,54.7096938 79.2731823,54.9921326 C79.9639159,55.2745715 80.9058112,55.4157887 82.0988966,55.4157887 C82.8524241,55.4157887 83.6059404,55.4000979 84.359468,55.3687158 C85.1129956,55.3373338 85.8665118,55.2274981 86.6200394,55.0392055 L86.6200394,63.324036 C85.4269541,63.4495644 84.2652832,63.5750909 83.1349918,63.7006192 C82.0047004,63.8261476 80.8430295,63.8889108 79.6499442,63.8889108 C76.8242158,63.8889108 74.5479687,63.6221671 72.8211346,63.0886715 C71.0943006,62.555176 69.7442506,61.7706355 68.7709442,60.7350265 C67.7976377,59.6994175 67.138311,58.3970803 66.7929442,56.8279758 C66.4475774,55.2588712 66.2435,53.4701189 66.1807061,51.4616651 L66.1807061,22.7471958 L58.0803251,22.7471958 L58.0803251,14.7448028 Z M109.754914,64.631854 C112.486166,64.631854 114.700283,62.4187871 114.700283,59.6888305 C114.700283,56.9588739 112.486166,54.745807 109.754914,54.745807 C107.023662,54.745807 104.809545,56.9588739 104.809545,59.6888305 C104.809545,62.4187871 107.023662,64.631854 109.754914,64.631854 Z M109.83269,21.2775951 C109.762205,20.7944954 109.568373,20.4296599 109.251188,20.1830777 C108.934003,19.9364956 108.533752,19.8132063 108.050423,19.8132063 C107.828898,19.8132063 107.592271,19.8509479 107.340538,19.9264323 C107.088804,20.0019166 106.857212,20.1428186 106.645756,20.3491424 C106.434299,20.5554663 106.258088,20.8423024 106.117117,21.2096595 C105.976146,21.5770166 105.905662,22.057593 105.905662,22.6514031 C105.905662,22.9734696 105.943421,23.2955313 106.018941,23.6175978 C106.094462,23.9396643 106.215292,24.2265004 106.381436,24.4781149 C106.547581,24.7297293 106.761551,24.933534 107.023354,25.0895349 C107.285158,25.2455359 107.602338,25.3235352 107.974904,25.3235352 C108.478371,25.3235352 108.893726,25.1675366 109.22098,24.8555347 C109.548234,24.5435328 109.752135,24.1057302 109.83269,23.5421138 L111.554541,23.5421138 C111.393431,24.5586362 111.008284,25.3361132 110.399088,25.8745681 C109.789893,26.413023 108.981839,26.6822464 107.974904,26.6822464 C107.360673,26.6822464 106.819453,26.5790861 106.351228,26.3727622 C105.883003,26.1664384 105.487787,25.8846344 105.165568,25.5273419 C104.843349,25.1700494 104.59917,24.7448273 104.433026,24.251663 C104.266882,23.7584987 104.183811,23.2250841 104.183811,22.6514031 C104.183811,22.0676576 104.264364,21.5191463 104.425474,21.0058529 C104.586584,20.4925594 104.828245,20.0472085 105.150464,19.6697868 C105.472683,19.2923651 105.872934,18.9954645 106.351228,18.7790761 C106.829523,18.5626877 107.390881,18.4544951 108.035319,18.4544951 C108.48844,18.4544951 108.918899,18.5123656 109.326708,18.6281082 C109.734516,18.7438509 110.097008,18.9174622 110.414192,19.1489475 C110.731377,19.3804328 110.990659,19.6723012 111.192046,20.0245614 C111.393433,20.3768216 111.514264,20.7944954 111.554541,21.2775951 L109.83269,21.2775951 Z M115.437657,18.6658502 L117.05378,18.6658502 L117.05378,20.1755293 L117.083988,20.1755293 C117.134335,19.9641732 117.23251,19.7578524 117.378515,19.5565609 C117.524521,19.3552693 117.700732,19.1715935 117.907154,19.005528 C118.113576,18.8394625 118.34265,18.7061088 118.594384,18.605463 C118.846118,18.5048172 119.102882,18.4544951 119.364686,18.4544951 C119.566073,18.4544951 119.704524,18.4595273 119.780044,18.4695919 C119.855565,18.4796565 119.933601,18.4897209 120.014156,18.4997855 L120.014156,20.1604325 C119.893323,20.1403034 119.769976,20.1226906 119.644109,20.1075938 C119.518242,20.0924969 119.394894,20.0849486 119.274062,20.0849486 C118.982051,20.0849486 118.707665,20.142819 118.450896,20.2585617 C118.194128,20.3743043 117.970088,20.5453996 117.77877,20.7718526 C117.587453,20.9983056 117.436415,21.2775934 117.325652,21.6097245 C117.214889,21.9418556 117.159508,22.3243038 117.159508,22.7570807 L117.159508,26.4708914 L115.437657,26.4708914 L115.437657,18.6658502 Z M124.305079,23.0137261 C124.305079,23.3156635 124.347873,23.6075318 124.433462,23.88934 C124.519052,24.1711482 124.647434,24.4177267 124.818613,24.6290828 C124.989792,24.8404389 125.20628,25.0090181 125.468083,25.1348253 C125.729886,25.2606325 126.042032,25.3235352 126.404528,25.3235352 C126.907996,25.3235352 127.313282,25.2153426 127.620397,24.9989542 C127.927512,24.7825658 128.156586,24.457988 128.307627,24.0252111 L129.938854,24.0252111 C129.84823,24.4479234 129.692157,24.8253394 129.470631,25.1574705 C129.249106,25.4896016 128.982272,25.7688894 128.670122,25.9953424 C128.357972,26.2217954 128.008067,26.3928907 127.620397,26.5086333 C127.232727,26.624376 126.827441,26.6822464 126.404528,26.6822464 C125.790298,26.6822464 125.246561,26.5816022 124.773301,26.3803106 C124.300042,26.1790191 123.899791,25.8972151 123.572537,25.5348903 C123.245283,25.1725655 122.998587,24.7397951 122.832443,24.2365662 C122.666299,23.7333373 122.583228,23.1797938 122.583228,22.5759192 C122.583228,22.0223674 122.671333,21.4965011 122.847547,20.9983045 C123.023761,20.5001079 123.275491,20.0623053 123.602745,19.6848836 C123.929999,19.3074619 124.325215,19.0080452 124.788405,18.7866245 C125.251595,18.5652038 125.775194,18.4544951 126.359217,18.4544951 C126.973447,18.4544951 127.524736,18.5828166 128.0131,18.8394633 C128.501463,19.09611 128.906749,19.4357844 129.228968,19.8584967 C129.551187,20.281209 129.785296,20.7668176 129.931302,21.3153371 C130.077308,21.8638566 130.115067,22.4299806 130.044582,23.0137261 L124.305079,23.0137261 Z M128.322731,21.8814668 C128.302592,21.6097232 128.244694,21.3480481 128.149035,21.0964336 C128.053376,20.8448192 127.922477,20.6259179 127.756332,20.4397232 C127.590188,20.2535285 127.388804,20.1025621 127.152174,19.9868194 C126.915544,19.8710768 126.651228,19.8132063 126.359217,19.8132063 C126.057136,19.8132063 125.78275,19.8660446 125.536051,19.9717226 C125.289352,20.0774007 125.077899,20.2233349 124.901685,20.4095296 C124.725471,20.5957243 124.584502,20.8146256 124.478774,21.06624 C124.373046,21.3178545 124.315148,21.589594 124.305079,21.8814668 L128.322731,21.8814668 Z M140.377087,24.7347603 C140.377087,24.9461165 140.404777,25.0970829 140.460158,25.1876641 C140.51554,25.2782453 140.623784,25.3235352 140.784894,25.3235352 L140.966141,25.3235352 C141.036626,25.3235352 141.11718,25.3134708 141.207804,25.2933416 L141.207804,26.4859882 C141.147388,26.5061173 141.069352,26.5287623 140.973693,26.5539237 C140.878034,26.5790852 140.779859,26.6017301 140.679166,26.6218593 C140.578472,26.6419884 140.47778,26.6570851 140.377087,26.6671497 C140.276393,26.6772142 140.190805,26.6822464 140.120319,26.6822464 C139.767892,26.6822464 139.475885,26.6117955 139.24429,26.4708914 C139.012695,26.3299873 138.861657,26.0834088 138.791171,25.7311486 C138.448813,26.0632797 138.028424,26.3048259 137.529991,26.4557946 C137.031558,26.6067632 136.550754,26.6822464 136.087563,26.6822464 C135.735136,26.6822464 135.397818,26.6344404 135.075598,26.5388269 C134.753379,26.4432134 134.468924,26.3023115 134.222225,26.1161168 C133.975526,25.9299221 133.779176,25.693408 133.633171,25.4065676 C133.487165,25.1197271 133.414163,24.7850849 133.414163,24.4026309 C133.414163,23.9195312 133.502269,23.5270185 133.678483,23.2250812 C133.854696,22.9231439 134.086288,22.6866298 134.373264,22.515532 C134.660241,22.3444342 134.982456,22.2211449 135.339918,22.1456606 C135.69738,22.0701763 136.057354,22.0123058 136.41985,21.9720475 C136.732,21.91166 137.029042,21.8688862 137.310984,21.8437248 C137.592926,21.8185633 137.842138,21.7757895 138.05863,21.7154021 C138.275121,21.6550146 138.446297,21.5619186 138.572164,21.4361114 C138.698031,21.3103042 138.760963,21.1215962 138.760963,20.8699817 C138.760963,20.648561 138.7081,20.4674013 138.602372,20.3264972 C138.496644,20.1855932 138.365744,20.0774006 138.209669,20.0019162 C138.053594,19.9264319 137.8799,19.8761098 137.688583,19.8509483 C137.497265,19.8257869 137.316019,19.8132063 137.14484,19.8132063 C136.661511,19.8132063 136.263778,19.9138506 135.951628,20.1151422 C135.639478,20.3164337 135.463267,20.628431 135.422989,21.0511432 L133.701138,21.0511432 C133.731346,20.5479143 133.852177,20.1302406 134.063633,19.7981095 C134.27509,19.4659785 134.544441,19.1992712 134.871695,18.9979796 C135.198949,18.796688 135.568992,18.6557861 135.981836,18.5752694 C136.394679,18.4947528 136.817586,18.4544951 137.250568,18.4544951 C137.633203,18.4544951 138.010799,18.4947528 138.383365,18.5752694 C138.755931,18.6557861 139.090732,18.7866236 139.387778,18.967786 C139.684824,19.1489484 139.923967,19.3829463 140.105216,19.6697868 C140.286464,19.9566273 140.377087,20.3063661 140.377087,20.7190138 L140.377087,24.7347603 Z M138.655236,22.5608224 C138.393433,22.7319202 138.071218,22.8350806 137.688583,22.8703066 C137.305947,22.9055326 136.923317,22.9583709 136.540682,23.0288229 C136.359434,23.0590166 136.183223,23.1017905 136.012044,23.1571456 C135.840865,23.2125008 135.689827,23.287984 135.558925,23.3835975 C135.428023,23.479211 135.324814,23.6050163 135.249294,23.7610173 C135.173774,23.9170183 135.136014,24.1057263 135.136014,24.327147 C135.136014,24.518374 135.191395,24.6794048 135.302158,24.8102443 C135.412921,24.9410838 135.546338,25.0442442 135.702413,25.1197285 C135.858488,25.1952129 136.029664,25.2480511 136.215947,25.2782448 C136.40223,25.3084386 136.570889,25.3235352 136.72193,25.3235352 C136.913247,25.3235352 137.119666,25.2983741 137.341192,25.2480513 C137.562717,25.1977284 137.771653,25.1121807 137.968006,24.9914058 C138.164358,24.8706309 138.327983,24.7171484 138.458884,24.5309537 C138.589786,24.344759 138.655236,24.1157933 138.655236,23.8440497 L138.655236,22.5608224 Z M143.927916,18.6658502 L145.226856,18.6658502 L145.226856,16.3258475 L146.948707,16.3258475 L146.948707,18.6658502 L148.504414,18.6658502 L148.504414,19.9490775 L146.948707,19.9490775 L146.948707,24.1157919 C146.948707,24.2969543 146.956259,24.4529529 146.971363,24.5837924 C146.986467,24.7146319 147.021709,24.8253406 147.077091,24.9159218 C147.132472,25.006503 147.215543,25.0744379 147.326306,25.1197285 C147.437069,25.1650191 147.588107,25.1876641 147.779424,25.1876641 C147.900257,25.1876641 148.021087,25.185148 148.141919,25.1801157 C148.262752,25.1750834 148.383582,25.1574707 148.504414,25.1272769 L148.504414,26.4557946 C148.313097,26.4759237 148.126816,26.4960526 147.945568,26.5161817 C147.76432,26.5363109 147.578039,26.5463753 147.386722,26.5463753 C146.933601,26.5463753 146.568592,26.5036015 146.291685,26.4180526 C146.014778,26.3325037 145.79829,26.2066983 145.642215,26.0406328 C145.48614,25.8745673 145.380413,25.6657304 145.325032,25.414116 C145.26965,25.1625015 145.236925,24.8756653 145.226856,24.5535988 L145.226856,19.9490775 L143.927916,19.9490775 L143.927916,18.6658502 Z M152.266699,15.6917823 L153.98855,15.6917823 L153.98855,17.3222357 L152.266699,17.3222357 L152.266699,15.6917823 Z M152.266699,18.6658502 L153.98855,18.6658502 L153.98855,26.4708914 L152.266699,26.4708914 L152.266699,18.6658502 Z M157.569587,18.6658502 L159.442477,18.6658502 L161.421095,24.6592764 L161.451303,24.6592764 L163.354402,18.6658502 L165.136668,18.6658502 L162.342437,26.4708914 L160.40913,26.4708914 L157.569587,18.6658502 Z M170.001542,23.0137261 C170.001542,23.3156635 170.044336,23.6075318 170.129925,23.88934 C170.215515,24.1711482 170.343897,24.4177267 170.515076,24.6290828 C170.686255,24.8404389 170.902743,25.0090181 171.164546,25.1348253 C171.426349,25.2606325 171.738495,25.3235352 172.100991,25.3235352 C172.604459,25.3235352 173.009744,25.2153426 173.31686,24.9989542 C173.623975,24.7825658 173.853049,24.457988 174.00409,24.0252111 L175.635317,24.0252111 C175.544693,24.4479234 175.38862,24.8253394 175.167094,25.1574705 C174.945569,25.4896016 174.678735,25.7688894 174.366585,25.9953424 C174.054435,26.2217954 173.70453,26.3928907 173.31686,26.5086333 C172.92919,26.624376 172.523904,26.6822464 172.100991,26.6822464 C171.486761,26.6822464 170.943024,26.5816022 170.469764,26.3803106 C169.996505,26.1790191 169.596254,25.8972151 169.269,25.5348903 C168.941746,25.1725655 168.69505,24.7397951 168.528906,24.2365662 C168.362762,23.7333373 168.279691,23.1797938 168.279691,22.5759192 C168.279691,22.0223674 168.367796,21.4965011 168.54401,20.9983045 C168.720224,20.5001079 168.971954,20.0623053 169.299208,19.6848836 C169.626462,19.3074619 170.021678,19.0080452 170.484868,18.7866245 C170.948058,18.5652038 171.471657,18.4544951 172.05568,18.4544951 C172.66991,18.4544951 173.221199,18.5828166 173.709563,18.8394633 C174.197926,19.09611 174.603212,19.4357844 174.925431,19.8584967 C175.24765,20.281209 175.481759,20.7668176 175.627765,21.3153371 C175.773771,21.8638566 175.81153,22.4299806 175.741045,23.0137261 L170.001542,23.0137261 Z M174.019194,21.8814668 C173.999055,21.6097232 173.941157,21.3480481 173.845498,21.0964336 C173.749839,20.8448192 173.61894,20.6259179 173.452795,20.4397232 C173.286651,20.2535285 173.085267,20.1025621 172.848637,19.9868194 C172.612007,19.8710768 172.347691,19.8132063 172.05568,19.8132063 C171.753599,19.8132063 171.479213,19.8660446 171.232514,19.9717226 C170.985815,20.0774007 170.774362,20.2233349 170.598148,20.4095296 C170.421934,20.5957243 170.280965,20.8146256 170.175237,21.06624 C170.069509,21.3178545 170.011611,21.589594 170.001542,21.8814668 L174.019194,21.8814668 Z M126.767383,36.5022138 L128.066324,36.5022138 L128.066324,34.1622111 L129.788174,34.1622111 L129.788174,36.5022138 L131.343882,36.5022138 L131.343882,37.7854411 L129.788174,37.7854411 L129.788174,41.9521555 C129.788174,42.1333179 129.795726,42.2893166 129.81083,42.4201561 C129.825934,42.5509956 129.861177,42.6617043 129.916558,42.7522855 C129.97194,42.8428667 130.05501,42.9108016 130.165773,42.9560922 C130.276536,43.0013828 130.427574,43.0240277 130.618892,43.0240277 C130.739724,43.0240277 130.860555,43.0215116 130.981387,43.0164793 C131.102219,43.011447 131.22305,42.9938343 131.343882,42.9636406 L131.343882,44.2921582 C131.152564,44.3122874 130.966284,44.3324162 130.785035,44.3525454 C130.603787,44.3726745 130.417507,44.382739 130.226189,44.382739 C129.773068,44.382739 129.40806,44.3399651 129.131152,44.2544162 C128.854245,44.1688673 128.637757,44.043062 128.481682,43.8769964 C128.325607,43.7109309 128.219881,43.502094 128.164499,43.2504796 C128.109118,42.9988651 128.076393,42.712029 128.066324,42.3899625 L128.066324,37.7854411 L126.767383,37.7854411 L126.767383,36.5022138 Z M134.350969,36.5022138 L136.178547,36.5022138 L137.704047,42.3295753 L137.734255,42.3295753 L139.199338,36.5022138 L140.936293,36.5022138 L142.340961,42.3295753 L142.371169,42.3295753 L143.957084,36.5022138 L145.709143,36.5022138 L143.262302,44.307255 L141.495139,44.307255 L140.04516,38.5100871 L140.014952,38.5100871 L138.580076,44.307255 L136.767601,44.307255 L134.350969,36.5022138 Z M150.634432,40.8500898 C150.634432,41.1520271 150.677226,41.4438955 150.762816,41.7257037 C150.848405,42.0075118 150.976788,42.2540903 151.147967,42.4654464 C151.319146,42.6768026 151.535633,42.8453817 151.797437,42.971189 C152.05924,43.0969962 152.371385,43.1598988 152.733882,43.1598988 C153.23735,43.1598988 153.642635,43.0517063 153.94975,42.8353178 C154.256866,42.6189294 154.48594,42.2943516 154.63698,41.8615748 L156.268207,41.8615748 C156.177583,42.2842871 156.021511,42.6617031 155.799985,42.9938341 C155.578459,43.3259652 155.311625,43.6052531 154.999475,43.8317061 C154.687325,44.0581591 154.33742,44.2292543 153.94975,44.344997 C153.56208,44.4607396 153.156795,44.5186101 152.733882,44.5186101 C152.119651,44.5186101 151.575914,44.4179658 151.102655,44.2166743 C150.629395,44.0153827 150.229144,43.7335787 149.90189,43.3712539 C149.574636,43.0089291 149.327941,42.5761588 149.161796,42.0729299 C148.995652,41.569701 148.912581,41.0161575 148.912581,40.4122828 C148.912581,39.858731 149.000687,39.3328647 149.1769,38.8346681 C149.353114,38.3364715 149.604844,37.8986689 149.932098,37.5212472 C150.259352,37.1438256 150.654568,36.8444089 151.117759,36.6229882 C151.580949,36.4015674 152.104547,36.2908587 152.68857,36.2908587 C153.302801,36.2908587 153.854089,36.4191802 154.342453,36.6758269 C154.830817,36.9324737 155.236102,37.2721481 155.558322,37.6948603 C155.880541,38.1175726 156.11465,38.6031812 156.260655,39.1517007 C156.406661,39.7002202 156.444421,40.2663442 156.373935,40.8500898 L150.634432,40.8500898 Z M154.652084,39.7178304 C154.631945,39.4460868 154.574048,39.1844117 154.478389,38.9327972 C154.38273,38.6811828 154.25183,38.4622815 154.085686,38.2760868 C153.919542,38.0898921 153.718157,37.9389257 153.481528,37.8231831 C153.244898,37.7074404 152.980581,37.64957 152.68857,37.64957 C152.386489,37.64957 152.112104,37.7024082 151.865404,37.8080863 C151.618705,37.9137644 151.407252,38.0596985 151.231038,38.2458932 C151.054825,38.4320879 150.913856,38.6509892 150.808128,38.9026037 C150.702399,39.1542181 150.644501,39.4259576 150.634432,39.7178304 L154.652084,39.7178304 Z M161.51068,40.8500898 C161.51068,41.1520271 161.553474,41.4438955 161.639063,41.7257037 C161.724653,42.0075118 161.853035,42.2540903 162.024214,42.4654464 C162.195393,42.6768026 162.411881,42.8453817 162.673684,42.971189 C162.935487,43.0969962 163.247633,43.1598988 163.610129,43.1598988 C164.113597,43.1598988 164.518882,43.0517063 164.825998,42.8353178 C165.133113,42.6189294 165.362187,42.2943516 165.513228,41.8615748 L167.144455,41.8615748 C167.053831,42.2842871 166.897758,42.6617031 166.676232,42.9938341 C166.454706,43.3259652 166.187873,43.6052531 165.875723,43.8317061 C165.563573,44.0581591 165.213668,44.2292543 164.825998,44.344997 C164.438328,44.4607396 164.033042,44.5186101 163.610129,44.5186101 C162.995899,44.5186101 162.452162,44.4179658 161.978902,44.2166743 C161.505642,44.0153827 161.105392,43.7335787 160.778138,43.3712539 C160.450884,43.0089291 160.204188,42.5761588 160.038044,42.0729299 C159.8719,41.569701 159.788829,41.0161575 159.788829,40.4122828 C159.788829,39.858731 159.876934,39.3328647 160.053148,38.8346681 C160.229362,38.3364715 160.481092,37.8986689 160.808346,37.5212472 C161.1356,37.1438256 161.530816,36.8444089 161.994006,36.6229882 C162.457196,36.4015674 162.980795,36.2908587 163.564817,36.2908587 C164.179048,36.2908587 164.730337,36.4191802 165.218701,36.6758269 C165.707064,36.9324737 166.11235,37.2721481 166.434569,37.6948603 C166.756788,38.1175726 166.990897,38.6031812 167.136903,39.1517007 C167.282909,39.7002202 167.320668,40.2663442 167.250183,40.8500898 L161.51068,40.8500898 Z M165.528332,39.7178304 C165.508193,39.4460868 165.450295,39.1844117 165.354636,38.9327972 C165.258977,38.6811828 165.128078,38.4622815 164.961933,38.2760868 C164.795789,38.0898921 164.594405,37.9389257 164.357775,37.8231831 C164.121145,37.7074404 163.856829,37.64957 163.564817,37.64957 C163.262737,37.64957 162.988351,37.7024082 162.741652,37.8080863 C162.494953,37.9137644 162.283499,38.0596985 162.107286,38.2458932 C161.931072,38.4320879 161.790103,38.6509892 161.684375,38.9026037 C161.578647,39.1542181 161.520749,39.4259576 161.51068,39.7178304 L165.528332,39.7178304 Z M170.257269,36.5022138 L171.556209,36.5022138 L171.556209,34.1622111 L173.27806,34.1622111 L173.27806,36.5022138 L174.833768,36.5022138 L174.833768,37.7854411 L173.27806,37.7854411 L173.27806,41.9521555 C173.27806,42.1333179 173.285612,42.2893166 173.300716,42.4201561 C173.31582,42.5509956 173.351063,42.6617043 173.406444,42.7522855 C173.461825,42.8428667 173.544896,42.9108016 173.655659,42.9560922 C173.766422,43.0013828 173.91746,43.0240277 174.108778,43.0240277 C174.22961,43.0240277 174.350441,43.0215116 174.471273,43.0164793 C174.592105,43.011447 174.712936,42.9938343 174.833768,42.9636406 L174.833768,44.2921582 C174.64245,44.3122874 174.45617,44.3324162 174.274921,44.3525454 C174.093673,44.3726745 173.907393,44.382739 173.716075,44.382739 C173.262954,44.382739 172.897946,44.3399651 172.621038,44.2544162 C172.344131,44.1688673 172.127643,44.043062 171.971568,43.8769964 C171.815493,43.7109309 171.709767,43.502094 171.654385,43.2504796 C171.599004,42.9988651 171.566279,42.712029 171.556209,42.3899625 L171.556209,37.7854411 L170.257269,37.7854411 L170.257269,36.5022138 Z M178.875,42.975 L180.96,42.975 L180.96,45 L178.875,45 L178.875,42.975 Z" sketch:type="MSShapeGroup"></path>
            </g>
        </g>
    </g>
</svg>