<?xml version="1.0" encoding="UTF-8" standalone="no"?>
<svg width="44px" height="44px" viewBox="0 0 44 44" version="1.1" xmlns="http://www.w3.org/2000/svg" xmlns:xlink="http://www.w3.org/1999/xlink" xmlns:sketch="http://www.bohemiancoding.com/sketch/ns">
    <title>social-twitter-bird</title>
    <description>Created with Sketch (http://www.bohemiancoding.com/sketch)</description>
    <defs></defs>
    <g id="Stencil" stroke="none" stroke-width="1" fill="none" fill-rule="evenodd" sketch:type="MSPage">
        <g id="Desktop" sketch:type="MSArtboardGroup" transform="translate(-421.000000, -728.000000)" fill="#2D1C13">
            <g id="social-icons-+-contact" sketch:type="MSLayerGroup" transform="translate(393.000000, 683.000000)">
                <g id="social-icons" transform="translate(0.000000, 45.000000)" sketch:type="MSShapeGroup">
                    <path d="M28,35.6826143 C28.7118748,35.7685605 29.4362416,35.8125291 30.1706667,35.8125291 C34.4338041,35.8125291 38.3573895,34.3247309 41.4715986,31.8288072 C37.4897718,31.7536457 34.1292943,29.0630987 32.9714431,25.3657534 C33.5269262,25.4744305 34.0970101,25.5326682 34.6833172,25.5326682 C35.5132971,25.5326682 36.3171575,25.4190135 37.0807845,25.2063049 C32.9179065,24.3514888 29.7814716,20.5900987 29.7814716,16.0810762 C29.7814716,16.0419193 29.7814716,16.0029283 29.7821206,15.9641031 C31.0090826,16.66113 32.4120666,17.0797444 33.9037915,17.1280269 C31.4621971,15.4592108 29.8556118,12.6107085 29.8556118,9.3820852 C29.8556118,7.6766009 30.304346,6.07796861 31.087603,4.70349327 C35.5755942,10.3337982 42.2804883,14.0387758 49.8431039,14.426861 C49.68801,13.7457623 49.6073806,13.0354619 49.6073806,12.3060807 C49.6073806,7.16673094 53.6816797,3 58.7071462,3 C61.3242758,3 63.6891344,4.13024215 65.3490942,5.93892825 C67.4217726,5.52147534 69.3692078,4.74696413 71.127318,3.6806009 C70.4478896,5.85364574 69.0051587,7.67743049 67.1263478,8.82924215 C68.9670342,8.60425561 70.7207641,8.10400897 72.3526577,7.36384305 C71.1326716,9.23010314 69.5898435,10.8692197 67.8121032,12.1813094 C67.8296243,12.5803453 67.8383849,12.981704 67.8383849,13.3852197 C67.8383849,25.682991 58.6858938,39.8636143 41.9487235,39.8636143 C36.8100189,39.8636143 32.0269274,38.3230538 28,35.6826143 Z" id="Fill-1"></path>
                </g>
            </g>
        </g>
    </g>
</svg>