<?xml version="1.0" encoding="UTF-8" standalone="no"?>
<svg width="44px" height="44px" viewBox="0 0 44 44" version="1.1" xmlns="http://www.w3.org/2000/svg" xmlns:xlink="http://www.w3.org/1999/xlink" xmlns:sketch="http://www.bohemiancoding.com/sketch/ns">
    <title>social-facebook</title>
    <description>Created with Sketch (http://www.bohemiancoding.com/sketch)</description>
    <defs></defs>
    <g id="Stencil" stroke="none" stroke-width="1" fill="none" fill-rule="evenodd" sketch:type="MSPage">
        <g id="Desktop" sketch:type="MSArtboardGroup" transform="translate(-496.000000, -728.000000)" fill="#2D1C13">
            <g id="social-icons-+-contact" sketch:type="MSLayerGroup" transform="translate(393.000000, 683.000000)">
                <g id="social-icons" transform="translate(0.000000, 45.000000)" sketch:type="MSShapeGroup">
                    <path d="M144.57162,0 L105.42838,0 C104.086918,0 103,1.0869184 103,2.42837981 L103,41.5716202 C103,42.9127519 104.086918,44 105.42838,44 L126.501705,44 L126.501705,26.9609508 L120.767728,26.9609508 L120.767728,20.3204118 L126.501705,20.3204118 L126.501705,15.4232617 C126.501705,9.7400616 129.972821,6.64548472 135.042579,6.64548472 C137.470959,6.64548472 139.558244,6.82633555 140.166411,6.90711668 L140.166411,12.8463435 L136.650288,12.8479921 C133.893014,12.8479921 133.359199,14.1581302 133.359199,16.0807212 L133.359199,20.3204118 L139.934948,20.3204118 L139.078668,26.9609508 L133.359199,26.9609508 L133.359199,44 L144.57162,44 C145.912752,44 147,42.9127519 147,41.5716202 L147,2.42837981 C147,1.0869184 145.912752,0 144.57162,0" id="Fill-14"></path>
                </g>
            </g>
        </g>
    </g>
</svg>