<?xml version="1.0" encoding="UTF-8" standalone="no"?>
<svg width="44px" height="44px" viewBox="0 0 44 44" version="1.1" xmlns="http://www.w3.org/2000/svg" xmlns:xlink="http://www.w3.org/1999/xlink" xmlns:sketch="http://www.bohemiancoding.com/sketch/ns">
    <title>social-google-plus</title>
    <description>Created with Sketch (http://www.bohemiancoding.com/sketch)</description>
    <defs></defs>
    <g id="Stencil" stroke="none" stroke-width="1" fill="none" fill-rule="evenodd" sketch:type="MSPage">
        <g id="Desktop" sketch:type="MSArtboardGroup" transform="translate(-569.000000, -728.000000)" fill="#2D1C13">
            <g id="social-icons-+-contact" sketch:type="MSLayerGroup" transform="translate(393.000000, 683.000000)">
                <g id="social-icons" transform="translate(0.000000, 45.000000)" sketch:type="MSShapeGroup">
                    <path d="M195.859885,2.98309265 C196.204013,3.1977508 196.591157,3.51095208 197.021316,3.92241534 C197.434045,4.35201278 197.83876,4.8798722 198.23462,5.50613419 C198.613048,6.09654952 198.948319,6.79422364 199.240997,7.59929712 C199.481661,8.40451118 199.602415,9.34383387 199.602415,10.4175463 C199.569802,12.3858786 199.137112,13.9601789 198.304345,15.1410096 C197.895974,15.7139936 197.463284,16.2414313 197.006275,16.7247284 C196.500204,17.2077444 195.96138,17.7000383 195.390083,18.2007668 C195.063387,18.5409585 194.761572,18.9251502 194.484217,19.3547476 C194.157661,19.8021981 193.994313,20.3210607 193.994313,20.911476 C193.994313,21.4841789 194.161738,21.9580575 194.496728,22.3338147 C194.781112,22.692 195.057623,23.0049201 195.3257,23.273278 L197.184524,24.803016 C198.339911,25.7516166 199.353035,26.7977764 200.223898,27.9430415 C201.044575,29.1061597 201.471923,30.6270415 201.50524,32.5058275 C201.50524,35.1715527 200.332843,37.5333546 197.988192,39.5910927 C195.556665,41.7203834 192.047911,42.8206645 187.462914,42.8923578 C183.624792,42.8563706 180.758748,42.0348498 178.865904,40.427655 C176.955629,38.9271565 176,37.1325751 176,35.0432077 C176,34.0250224 176.310812,32.8911438 176.932153,31.6410096 C177.53522,30.3905942 178.627067,29.2921406 180.207412,28.3463514 C181.982454,27.3281661 183.846901,26.6496102 185.799911,26.3104026 C187.734505,26.0243323 189.340997,25.8640767 190.619527,25.82823 C190.224371,25.3065559 189.87223,24.748754 189.563246,24.1549649 C189.20239,23.5794505 189.022313,22.8866965 189.022313,22.076984 C189.022313,21.5915783 189.090773,21.1864409 189.228256,20.8626965 C189.348447,20.5208179 189.460064,20.2063514 189.563105,19.9187348 C188.940358,19.9904281 188.353597,20.0259936 187.802403,20.0259936 C184.88547,19.9904281 182.661853,19.0689585 181.132537,17.2620064 C179.531527,15.5804473 178.731374,13.6216741 178.731374,11.3852652 C178.731374,8.68369329 179.865393,6.2331885 182.133572,4.03220447 C183.691425,2.74453674 185.310147,1.90361661 186.989597,1.50972524 C188.651898,1.17023642 190.210032,1 191.664422,1 L202.623514,1 L199.238888,2.98351438 L195.859885,2.98351438 L195.859885,2.98309265 Z M197.976946,34.656345 C197.976946,33.2604345 197.523029,32.0433355 196.615898,31.0058914 C195.656051,30.0211629 194.155834,28.8134824 192.114262,27.3817252 C191.765214,27.3455974 191.355438,27.3281661 190.884371,27.3281661 C190.604907,27.2920383 189.889521,27.3281661 188.73807,27.4355655 C187.603629,27.5963834 186.443463,27.8557444 185.257291,28.2137891 C184.977827,28.3213291 184.585201,28.4822875 184.079553,28.6973674 C183.573342,28.929738 183.058837,29.2610735 182.535476,29.6903898 C182.029265,30.1374185 181.602058,30.6924089 181.252869,31.3546581 C180.851387,32.0526134 180.651067,32.8935335 180.651067,33.8779808 C180.651067,35.8104665 181.523054,37.4031821 183.268153,38.6562684 C184.925674,39.9087923 187.193994,40.5529073 190.072971,40.5890351 C192.655335,40.5529073 194.627042,39.9804856 195.987808,38.8709265 C197.313712,37.7789393 197.976946,36.3740319 197.976946,34.656345 L197.976946,34.656345 Z M190.33655,18.5274633 C191.779131,18.4739042 192.981048,17.9539169 193.942863,16.9675016 C194.406479,16.2684217 194.70478,15.5516294 194.837201,14.8162812 C194.916626,14.0816358 194.95669,13.4631054 194.95669,12.9608307 C194.95669,10.791476 194.404089,8.6041278 193.298888,6.39878594 C192.780728,5.34109904 192.098658,4.4804984 191.252537,3.8171246 C190.388703,3.18987859 189.395962,2.85798083 188.273329,2.82199361 C186.788294,2.85812141 185.553201,3.45865815 184.569176,4.62388498 C183.738939,5.8433738 183.341815,7.20596805 183.377661,8.71152716 C183.377661,10.7016486 183.957393,12.7728818 185.1177,14.9241022 C185.679016,15.92823 186.404102,16.7798339 187.291974,17.4787732 C188.179706,18.1784153 189.194658,18.5274633 190.33655,18.5274633 Z M220,18.1501597 L214.095847,18.1501597 L214.095847,12.2460064 L210.722045,12.2460064 L210.722045,18.1501597 L204.958466,18.1501597 L204.958466,21.5239617 L210.722045,21.5239617 L210.722045,27.2875399 L214.095847,27.2875399 L214.095847,21.5239617 L220,21.5239617 L220,18.1501597 Z" id="Shape"></path>
                </g>
            </g>
        </g>
    </g>
</svg>