<?xml version="1.0" encoding="UTF-8" standalone="no"?>
<svg width="44px" height="44px" viewBox="0 0 44 44" version="1.1" xmlns="http://www.w3.org/2000/svg" xmlns:xlink="http://www.w3.org/1999/xlink" xmlns:sketch="http://www.bohemiancoding.com/sketch/ns">
    <title>social-github</title>
    <description>Created with Sketch (http://www.bohemiancoding.com/sketch)</description>
    <defs></defs>
    <g id="Stencil" stroke="none" stroke-width="1" fill="none" fill-rule="evenodd" sketch:type="MSPage">
        <g id="Desktop" sketch:type="MSArtboardGroup" transform="translate(-641.000000, -728.000000)" fill="#2D1C13">
            <g id="social-icons-+-contact" sketch:type="MSLayerGroup" transform="translate(393.000000, 683.000000)">
                <g id="social-icons" transform="translate(0.000000, 45.000000)" sketch:type="MSShapeGroup">
                    <path d="M269.959273,0.309454545 C257.833091,0.309454545 248,10.1403636 248,22.2683636 C248,31.9705455 254.292,40.2018182 263.017091,43.1054545 C264.114545,43.3087273 264.517455,42.6290909 264.517455,42.0490909 C264.517455,41.5254545 264.497091,39.7956364 264.487636,37.9607273 C258.378545,39.2890909 257.089455,35.3698182 257.089455,35.3698182 C256.090545,32.8316364 254.651273,32.1567273 254.651273,32.1567273 C252.658909,30.7938182 254.801455,30.8218182 254.801455,30.8218182 C257.006545,30.9767273 258.167636,33.0847273 258.167636,33.0847273 C260.126182,36.4418182 263.304727,35.4712727 264.557818,34.9101818 C264.754909,33.4912727 265.324,32.5221818 265.952,31.9738182 C261.074545,31.4185455 255.947273,29.5356364 255.947273,21.1214545 C255.947273,18.724 256.805091,16.7650909 258.209818,15.2272727 C257.981818,14.6741818 257.230182,12.4407273 258.422545,9.416 C258.422545,9.416 260.266909,8.82618182 264.462909,11.6669091 C266.214545,11.1803636 268.093091,10.9363636 269.959273,10.928 C271.825455,10.9363636 273.705455,11.1803636 275.460364,11.6669091 C279.651636,8.82618182 281.493091,9.416 281.493091,9.416 C282.688364,12.4407273 281.936364,14.6741818 281.708364,15.2272727 C283.116727,16.7650909 283.968364,18.724 283.968364,21.1214545 C283.968364,29.5556364 278.831273,31.4127273 273.941455,31.9563636 C274.729091,32.6378182 275.430909,33.9741818 275.430909,36.0229091 C275.430909,38.9610909 275.405455,41.3258182 275.405455,42.0490909 C275.405455,42.6334545 275.800727,43.3181818 276.913818,43.1025455 C285.634182,40.1956364 291.918545,31.9672727 291.918545,22.2683636 C291.918545,10.1403636 282.086545,0.309454545 269.959273,0.309454545 Z M264.364364,35.8727273 C264.395636,36.0494545 264.214182,36.2309091 263.954909,36.2792727 C263.7,36.3258182 263.464364,36.2167273 263.431636,36.0414545 C263.4,35.8603636 263.584727,35.6789091 263.839273,35.632 C264.098909,35.5869091 264.331273,35.6930909 264.364364,35.8727273 Z M262.692364,36.1574545 C262.698182,36.3385455 262.487273,36.4887273 262.226182,36.492 C261.964,36.4978182 261.751273,36.3512727 261.748364,36.1730909 C261.748364,35.9901818 261.954545,35.8414545 262.217091,35.8370909 C262.478182,35.832 262.692364,35.9774545 262.692364,36.1574545 Z M260.894909,36.0258182 C260.841818,36.1978182 260.594909,36.276 260.346182,36.2029091 C260.097818,36.1276364 259.935273,35.9261818 259.985455,35.7523636 C260.037091,35.5792727 260.285091,35.4978182 260.535636,35.576 C260.783636,35.6509091 260.946545,35.8509091 260.894909,36.0258182 Z M259.258545,35.3163636 C259.138182,35.4490909 258.881818,35.4134545 258.694182,35.2323636 C258.502182,35.0552727 258.449091,34.804 258.569455,34.6712727 C258.691636,34.5381818 258.949455,34.5756364 259.138182,34.7552727 C259.328727,34.932 259.386909,35.1850909 259.258545,35.3163636 Z M258.072364,34.0945455 C257.937818,34.1883636 257.717818,34.1003636 257.581818,33.9050909 C257.447273,33.7098182 257.447273,33.4756364 257.585091,33.3818182 C257.721091,33.288 257.937818,33.3723636 258.075636,33.5661818 C258.209818,33.7647273 258.209818,33.9989091 258.072364,34.0945455 Z M257.206909,32.8298182 C257.101818,32.9269091 256.897091,32.8818182 256.758182,32.7283636 C256.614545,32.5752727 256.587636,32.3705455 256.693818,32.272 C256.801818,32.1752727 257.000364,32.2207273 257.144364,32.3734545 C257.288,32.5283636 257.316,32.7316364 257.206909,32.8298182 Z M256.317091,31.8378182 C256.268727,31.9472727 256.097091,31.9796364 255.940727,31.9047273 C255.781455,31.8330909 255.692364,31.6843636 255.743636,31.5749091 C255.790909,31.4629091 255.962909,31.4316364 256.121818,31.5065455 C256.281455,31.5781818 256.372364,31.7283636 256.317091,31.8378182 Z" id="Fill-2"></path>
                </g>
            </g>
        </g>
    </g>
</svg>