<svg width="162" height="116" viewBox="0 0 162 116" xmlns="http://www.w3.org/2000/svg"><title>fw-to-json-symbol</title><g fill="#FFF" fill-rule="evenodd"><path d="M71.472 9c17.756 6.66 23.876 6.44 19.235 23.675-5.18 19.236 22.913 14.057 22.935 42.17C113.654 90.383 105.504 100 83.31 100c-22.196 0-32.554-10.784-32.554-22.195 0-7.398 3.543-11.256 3.577-15.15.062-7.294-3.258-11.693-10.975-10.005 5.18-5.918 13.317-3.7 19.235 4.44C38.92 20.836 101.805 32.674 71.473 9zm38.947 16.276c-11.574 6.66-10.095 15.167 1.003 25.895-19.976-8.137-19.236-22.934-1.004-25.894zM.42 56.52v2.97c7.48 0 9.46 5.72 9.46 11.22 0 8.14-3.08 18.26-3.08 26.62 0 9.79 3.96 18.81 20.68 18.81v-3.96c-9.46 0-11.99-5.28-11.99-12.1 0-8.47 3.52-19.14 3.52-27.72 0-6.16-2.97-12.65-8.91-14.3 5.83-1.87 8.91-8.25 8.91-14.41 0-8.58-3.52-19.25-3.52-27.72 0-6.82 2.53-11.99 11.99-11.99V-.13C10.76-.13 6.8 8.89 6.8 18.68c0 8.58 3.08 18.37 3.08 26.62 0 5.61-1.87 11.22-9.46 11.22zM161.98 56.52c-7.59 0-9.46-5.61-9.46-11.22 0-8.25 3.08-18.04 3.08-26.62 0-9.79-3.96-18.81-20.68-18.81v4.07c9.46 0 11.99 5.17 11.99 11.99 0 8.47-3.52 19.14-3.52 27.72 0 6.16 3.08 12.54 8.91 14.41-5.94 1.65-8.91 8.14-8.91 14.3 0 8.58 3.52 19.25 3.52 27.72 0 6.82-2.53 12.1-11.99 12.1v3.96c16.72 0 20.68-9.02 20.68-18.81 0-8.36-3.08-18.48-3.08-26.62 0-5.5 1.98-11.22 9.46-11.22v-2.97z"/></g></svg>