<svg width="117" height="78" viewBox="0 0 117 78" xmlns="http://www.w3.org/2000/svg"><title>sketch-css-sprite-mixin-symbol</title><g fill="#FFF" fill-rule="evenodd"><path d="M78 38v-3h-1v3h-3v1h3v3h1v-3h3v-1h-3zm0 39v-5h-1v5h-3v1h7v-1h-3zM39 38v-3h-1v3h-3v1h3v3h1v-3h3v-1h-3zm0 39v-5h-1v5h-3v1h7v-1h-3zM78 1v5h-1V1h-3V0h7v1h-3zM39 1v5h-1V1h-3V0h7v1h-3zm77 38v3h1v-7h-1v3h-5v1h5zM1 38v-3H0v7h1v-3h5v-1H1zM0 0h1v6H0V0zm1 0h5v1H1V0zM0 72h1v6H0v-6zm1 5h5v1H1v-1zM116 0h1v6h-1V0zm0 72h1v6h-1v-6zm-5-72h5v1h-5V0zm0 77h5v1h-5v-1zM87 57l4-5h11l4 5-1 2-8.5 9-8.5-9-1-2zM9.848 27h3.36v-8.064c0-.392.056-.784.196-1.12.308-.952 1.176-1.96 2.464-1.96 1.596 0 2.352 1.344 2.352 3.248V27h3.36v-8.176c0-.392.084-.812.168-1.148.364-.98 1.232-1.82 2.408-1.82 1.652 0 2.436 1.344 2.436 3.612V27h3.36v-8.036c0-4.368-2.296-5.908-4.564-5.908-1.12 0-1.988.28-2.744.812-.644.392-1.204.952-1.68 1.708h-.056c-.588-1.512-1.988-2.52-3.78-2.52-2.296 0-3.528 1.26-4.2 2.324h-.084l-.14-2.016H9.736c.084 1.176.112 2.492.112 4.06V27zm50.216 0V13.364h-3.472V27h3.472zM58.328 7.68c-1.148 0-1.932.812-1.932 1.876 0 1.036.756 1.848 1.904 1.848 1.204 0 1.96-.812 1.96-1.848-.028-1.064-.756-1.876-1.932-1.876zm31.892 5.684l4.564 6.692L90.052 27h3.808l1.568-2.716c.448-.756.84-1.428 1.232-2.212h.056c.392.756.784 1.484 1.232 2.212L99.628 27h3.892l-4.648-7.084 4.564-6.552h-3.752l-1.512 2.52c-.392.7-.784 1.4-1.176 2.156h-.084c-.392-.7-.784-1.372-1.232-2.1l-1.624-2.576H90.22zM22.064 67V53.364h-3.472V67h3.472zm-1.736-19.32c-1.148 0-1.932.812-1.932 1.876 0 1.036.756 1.848 1.904 1.848 1.204 0 1.96-.812 1.96-1.848-.028-1.064-.756-1.876-1.932-1.876zM51.76 67h3.472v-8.008c0-.392.028-.812.14-1.12.364-1.036 1.316-2.016 2.688-2.016 1.876 0 2.604 1.484 2.604 3.444V67h3.444v-8.092c0-4.312-2.464-5.852-4.844-5.852-2.268 0-3.752 1.288-4.34 2.352h-.084l-.168-2.044h-3.024c.084 1.176.112 2.492.112 4.06V67z"/></g></svg>