<svg width="144" height="130" viewBox="0 0 144 130" xmlns="http://www.w3.org/2000/svg"><title>retina-image-exporter-symbol</title><g fill="none" fill-rule="evenodd"><path d="M7 68h9.68l11.957-45.98C26.385 19.68 25 16.5 25 13c0-7.18 5.82-13 13-13s13 5.82 13 13c0 3.384-1.294 6.467-3.413 8.78L59.314 68H71v2H59.82L72 118 53.465 70h-30.94L3.69 117.95 16.16 70H7v8H0V60h7v8zm45.692 0L38.126 30.28 23.31 68h29.382zM38 22c-4.97 0-9-4.03-9-9s4.03-9 9-9 9 4.03 9 9-4.03 9-9 9zM137 68h-9.68l-11.957-45.98C117.615 19.68 119 16.5 119 13c0-7.18-5.82-13-13-13S93 5.82 93 13c0 3.384 1.294 6.467 3.413 8.78L84.686 68H73v2h11.18L72 118l18.535-48h30.94l18.834 47.95L127.84 70H137v8h7V60h-7v8zm-45.692 0l14.566-37.72L120.69 68H91.308zM106 22c4.97 0 9-4.03 9-9s-4.03-9-9-9-9 4.03-9 9 4.03 9 9 9z" fill="#FFF"/><path d="M4 118.288C24.904 125.868 47.46 130 70.982 130c24.156 0 47.293-4.36 68.67-12.332" stroke="#FFF" opacity=".5"/></g></svg>